<?xml version="1.0" encoding="iso-8859-1"?>
<!-- Generator: Adobe Illustrator 23.0.2, SVG Export Plug-In . SVG Version: 6.00 Build 0)  -->
<svg version="1.1" xmlns="http://www.w3.org/2000/svg" xmlns:xlink="http://www.w3.org/1999/xlink" x="0px" y="0px"
	 viewBox="0 0 194.178 115.705" style="enable-background:new 0 0 194.178 115.705;" xml:space="preserve">
<g id="&#x5716;&#x5C64;_2" style="display:none;">
</g>
<g id="&#x5716;&#x5C64;_1">
	<path style="fill:none;stroke:#FFFFFF;stroke-width:2;stroke-linecap:round;stroke-linejoin:round;stroke-miterlimit:10;" d="
		M191.455,12.558L100.757,1L10.223,47.421c0,0-1.232,0.758-1.232,2.653l28.295,8.4l3.632-1.863l45.474,9.568l2.747,3.126
		l42.442,5.779l61.579-60.253C193.16,14.832,193.476,13.126,191.455,12.558z"/>
	<path style="fill:none;stroke:#FFFFFF;stroke-width:2;stroke-linecap:round;stroke-linejoin:round;stroke-miterlimit:10;" d="
		M193.16,14.832v18.758l-62.716,69.916c0,0-67.074-5.423-126.379-29.333V52.221l4.926-2.147"/>
	<path style="fill:none;stroke:#FFFFFF;stroke-width:2;stroke-linecap:round;stroke-linejoin:round;stroke-miterlimit:10;" d="
		M191.89,35.005v7.679l-60.72,73.021c0,0-84.095-9.169-119.337-24.516l-6.442-6.442v-9.663"/>
	<path style="fill:none;stroke:#FFFFFF;stroke-width:2;stroke-linecap:round;stroke-linejoin:round;stroke-miterlimit:10;" d="
		M111.066,2.314L24.715,48.963l10.803,3.195c0,0,20.653-8.147,47.747-3.032c0,0,18.688,4.358,17.491,16.295l24.382,3.6l62.028-57.01
		"/>
	
		<polyline style="fill:none;stroke:#FFFFFF;stroke-width:2;stroke-linecap:round;stroke-linejoin:round;stroke-miterlimit:10;" points="
		4.065,53.449 35.518,63.207 35.518,67.316 83.265,77.971 83.265,72.432 131.17,80.76 130.444,103.505 	"/>
	
		<line style="fill:none;stroke:#FFFFFF;stroke-width:2;stroke-linecap:round;stroke-linejoin:round;stroke-miterlimit:10;" x1="83.265" y1="72.432" x2="88.095" y2="68.118"/>
	<path style="fill:none;stroke:#FFFFFF;stroke-width:2;stroke-linecap:round;stroke-linejoin:round;stroke-miterlimit:10;" d="
		M35.518,65.168c0,0,2.284-3.254,12.226-7.122"/>
	
		<line style="fill:none;stroke:#FFFFFF;stroke-width:2;stroke-linecap:round;stroke-linejoin:round;stroke-miterlimit:10;" x1="38.405" y1="62.709" x2="83.265" y2="72.432"/>
	
		<line style="fill:none;stroke:#FFFFFF;stroke-width:2;stroke-linecap:round;stroke-linejoin:round;stroke-miterlimit:10;" x1="147.883" y1="7.005" x2="85.68" y2="49.831"/>
	
		<line style="fill:none;stroke:#FFFFFF;stroke-width:2;stroke-linecap:round;stroke-linejoin:round;stroke-miterlimit:10;" x1="141.425" y1="6.182" x2="79.141" y2="48.443"/>
	
		<line style="fill:none;stroke:#FFFFFF;stroke-width:2;stroke-linecap:round;stroke-linejoin:round;stroke-miterlimit:10;" x1="134.688" y1="5.559" x2="73.225" y2="47.771"/>
</g>
</svg>
