<?xml version="1.0" encoding="iso-8859-1"?>
<!-- Generator: Adobe Illustrator 23.0.2, SVG Export Plug-In . SVG Version: 6.00 Build 0)  -->
<svg version="1.1" id="&#x5716;&#x5C64;_1" xmlns="http://www.w3.org/2000/svg" xmlns:xlink="http://www.w3.org/1999/xlink" x="0px"
	 y="0px" viewBox="0 0 48.967 41.53" style="enable-background:new 0 0 48.967 41.53;" xml:space="preserve">
<g>
	
		<ellipse transform="matrix(0.9871 -0.1602 0.1602 0.9871 -4.8589 7.0078)" style="fill:none;stroke:#000000;stroke-linecap:round;stroke-linejoin:round;stroke-miterlimit:10;" cx="41.037" cy="33.642" rx="6.858" ry="6.858"/>
	<g>
		<polyline style="fill:none;stroke:#000000;stroke-linecap:round;stroke-linejoin:round;stroke-miterlimit:10;" points="38.096,34 
			40.44,36.09 44.234,31.45 		"/>
	</g>
</g>
<path style="fill:none;stroke:#000000;stroke-linecap:round;stroke-linejoin:round;stroke-miterlimit:10;" d="M34.178,33.642H1.253
	c-0.416,0-0.753-0.337-0.753-0.753V1.253C0.5,0.837,0.837,0.5,1.253,0.5h39.03c0.416,0,0.753,0.337,0.753,0.753v25.53"/>
<circle style="fill:none;stroke:#000000;stroke-linecap:round;stroke-linejoin:round;stroke-miterlimit:10;" cx="5.567" cy="4.879" r="1.173"/>
<circle style="fill:none;stroke:#000000;stroke-linecap:round;stroke-linejoin:round;stroke-miterlimit:10;" cx="10.73" cy="4.879" r="1.173"/>
<path style="fill:none;stroke:#000000;stroke-linecap:round;stroke-linejoin:round;stroke-miterlimit:10;" d="M17.066,4.879
	c0-0.648-0.525-1.173-1.173-1.173c-0.648,0-1.173,0.525-1.173,1.173s0.525,1.173,1.173,1.173
	C16.541,6.051,17.066,5.526,17.066,4.879z"/>
<line style="fill:none;stroke:#000000;stroke-linecap:round;stroke-linejoin:round;stroke-miterlimit:10;" x1="0.5" y1="9.344" x2="41.037" y2="9.344"/>
<line style="fill:none;stroke:#000000;stroke-linecap:round;stroke-linejoin:round;stroke-miterlimit:10;" x1="20.977" y1="4.922" x2="37.126" y2="4.922"/>
<rect x="4.426" y="13.751" style="fill:none;stroke:#000000;stroke-linecap:round;stroke-linejoin:round;stroke-miterlimit:10;" width="32.684" height="4.358"/>
<rect x="4.426" y="21.045" style="fill:none;stroke:#000000;stroke-linecap:round;stroke-linejoin:round;stroke-miterlimit:10;" width="14.874" height="4.358"/>
<rect x="22.237" y="21.045" style="fill:none;stroke:#000000;stroke-linecap:round;stroke-linejoin:round;stroke-miterlimit:10;" width="14.874" height="4.358"/>
</svg>
