<?xml version="1.0" encoding="iso-8859-1"?>
<!-- Generator: Adobe Illustrator 23.0.2, SVG Export Plug-In . SVG Version: 6.00 Build 0)  -->
<svg version="1.1" id="&#x5716;&#x5C64;_1" xmlns="http://www.w3.org/2000/svg" xmlns:xlink="http://www.w3.org/1999/xlink" x="0px"
	 y="0px" viewBox="0 0 44 44" style="enable-background:new 0 0 44 44;" xml:space="preserve">
<g>
	<g>
		<path style="fill:none;stroke:#000000;stroke-linecap:round;stroke-linejoin:round;stroke-miterlimit:10;" d="M17.05,26.459
			l0.72-3.605c0.159-0.795,0.591-1.518,1.218-2.036c0.4-0.329,0.805-0.541,1.193-0.626l3.078-0.894
			c0.067-0.019,0.13-0.049,0.188-0.088c0.162-0.109,0.269-0.284,0.291-0.478l0.142-1.218c-0.862-0.669-1.499-1.669-1.805-2.838
			c-0.55-0.049-0.972-0.66-0.972-1.431c0-0.713,0.358-1.289,0.848-1.412"/>
		<path style="fill:none;stroke:#000000;stroke-linecap:round;stroke-linejoin:round;stroke-miterlimit:10;" d="M30.637,11.841
			c0.477,0.136,0.822,0.704,0.822,1.404c0,0.77-0.42,1.381-0.968,1.431c-0.308,1.167-0.945,2.167-1.806,2.838l0.141,1.218
			c0.022,0.194,0.129,0.369,0.291,0.479c0.058,0.039,0.121,0.068,0.188,0.088l3.068,0.89c0.398,0.088,0.804,0.3,1.203,0.63
			c0.629,0.52,1.061,1.242,1.218,2.036l0.72,3.605"/>
		<path style="fill:none;stroke:#000000;stroke-linecap:round;stroke-linejoin:round;stroke-miterlimit:10;" d="M21.951,11.834
			c0,0-0.254-5.101,4.33-5.101c4.585,0,4.355,5.108,4.355,5.108"/>
		<path style="fill:none;stroke:#000000;stroke-linecap:round;stroke-linejoin:round;stroke-miterlimit:10;" d="M30.31,9.65
			c-0.178-0.366-0.528-0.647-0.91-0.786c-0.621-0.226-1.317-0.045-1.919,0.229c-0.868,0.396-1.627,0.863-2.601,0.97
			c-0.928,0.102-1.778-0.001-2.611-0.426"/>
		
			<line style="fill:none;stroke:#000000;stroke-linecap:round;stroke-linejoin:round;stroke-miterlimit:10;" x1="29.116" y1="19.211" x2="26.282" y2="22.149"/>
		
			<line style="fill:none;stroke:#000000;stroke-linecap:round;stroke-linejoin:round;stroke-miterlimit:10;" x1="23.447" y1="19.211" x2="26.282" y2="22.149"/>
		
			<line style="fill:none;stroke:#000000;stroke-linecap:round;stroke-linejoin:round;stroke-miterlimit:10;" x1="26.282" y1="22.149" x2="26.282" y2="24.083"/>
	</g>
	
		<ellipse transform="matrix(0.19 -0.9818 0.9818 0.19 3.8909 40.1541)" style="fill:none;stroke:#000000;stroke-linecap:round;stroke-linejoin:round;stroke-miterlimit:10;" cx="26.281" cy="17.719" rx="17.219" ry="17.219"/>
	<path style="fill:none;stroke:#000000;stroke-linecap:round;stroke-linejoin:round;stroke-miterlimit:10;" d="M25.823,37.891
		c-10.888,0-19.714-8.826-19.714-19.714"/>
	<path style="fill:none;stroke:#000000;stroke-linecap:round;stroke-linejoin:round;stroke-miterlimit:10;" d="M10.366,30.413
		l-9.199,9.199c-0.89,0.89-0.89,2.332,0,3.222l0,0c0.89,0.89,2.332,0.89,3.222,0l9.199-9.198"/>
</g>
</svg>
