<?xml version="1.0" encoding="iso-8859-1"?>
<!-- Generator: Adobe Illustrator 23.0.2, SVG Export Plug-In . SVG Version: 6.00 Build 0)  -->
<svg version="1.1" id="&#x5716;&#x5C64;_1" xmlns="http://www.w3.org/2000/svg" xmlns:xlink="http://www.w3.org/1999/xlink" x="0px"
	 y="0px" viewBox="0 0 44.439 40" style="enable-background:new 0 0 44.439 40;" xml:space="preserve">
<g>
	<path d="M41.951,0H2.488C1.116,0,0,1.116,0,2.488v29.729c0,1.372,1.116,2.488,2.488,2.488h15.789v4.323h-4.363
		c-0.268,0-0.486,0.217-0.486,0.486c0,0.268,0.217,0.486,0.486,0.486h4.848h6.913h5.921c0.268,0,0.486-0.217,0.486-0.486
		c0-0.268-0.217-0.486-0.486-0.486h-5.435v-4.323h15.789c1.372,0,2.488-1.116,2.488-2.488V2.488C44.439,1.116,43.322,0,41.951,0z
		 M2.488,0.971h39.463c0.836,0,1.517,0.68,1.517,1.517v24.896H22.442c-0.075-0.007-0.147-0.023-0.223-0.023
		c-0.077,0-0.149,0.016-0.223,0.023H0.971V2.488C0.971,1.652,1.652,0.971,2.488,0.971z M23.617,29.731
		c0,0.771-0.627,1.398-1.398,1.398c-0.771,0-1.398-0.627-1.398-1.398c0-0.731,0.57-1.315,1.286-1.375h0.223
		C23.047,28.416,23.617,29,23.617,29.731z M25.19,39.029h-5.942v-4.323h5.942V39.029z M41.951,33.734H25.676h-6.913H2.488
		c-0.836,0-1.517-0.68-1.517-1.517v-3.862h19.326c-0.279,0.389-0.448,0.861-0.448,1.375c0,1.306,1.063,2.369,2.369,2.369
		c1.306,0,2.369-1.063,2.369-2.369c0-0.514-0.169-0.987-0.448-1.375h19.327v3.862C43.467,33.054,42.787,33.734,41.951,33.734z"/>
	<path d="M21.875,22.036c0.095,0.095,0.22,0.142,0.343,0.142s0.249-0.047,0.343-0.142l6.063-6.062c0.19-0.19,0.19-0.497,0-0.687
		c-0.19-0.19-0.497-0.19-0.687,0l-5.234,5.234V6.029c0-0.268-0.217-0.486-0.486-0.486c-0.268,0-0.486,0.217-0.486,0.486v14.492
		L16.5,15.287c-0.19-0.19-0.497-0.19-0.687,0c-0.19,0.19-0.19,0.497,0,0.687L21.875,22.036z"/>
</g>
</svg>
