<?xml version="1.0" encoding="iso-8859-1"?>
<!-- Generator: Adobe Illustrator 23.0.2, SVG Export Plug-In . SVG Version: 6.00 Build 0)  -->
<svg version="1.1" id="Design" xmlns="http://www.w3.org/2000/svg" xmlns:xlink="http://www.w3.org/1999/xlink" x="0px" y="0px"
	 viewBox="0 0 25 25" style="enable-background:new 0 0 25 25;" xml:space="preserve">
<g>
	<g>
		<path style="fill:#3B5998;" d="M12.5,25C5.607,25,0,19.393,0,12.5C0,5.607,5.607,0,12.5,0C19.393,0,25,5.607,25,12.5
			C25,19.393,19.393,25,12.5,25z"/>
	</g>
	<g>
		<path style="fill-rule:evenodd;clip-rule:evenodd;fill:#FFFFFF;" d="M10.54,12.559v7.245c0,0.104,0.084,0.189,0.189,0.189h2.69
			c0.104,0,0.189-0.084,0.189-0.189v-7.363h1.95c0.098,0,0.18-0.075,0.188-0.173l0.188-2.218c0.009-0.11-0.078-0.205-0.188-0.205
			h-2.138V8.271c0-0.369,0.299-0.668,0.668-0.668h1.503c0.104,0,0.189-0.085,0.189-0.189V5.196c0-0.104-0.085-0.189-0.189-0.189
			h-2.54c-1.491,0-2.699,1.208-2.699,2.699v2.139H9.195c-0.104,0-0.189,0.085-0.189,0.189v2.218c0,0.104,0.084,0.189,0.189,0.189
			h1.345V12.559z"/>
	</g>
</g>
</svg>
