<?xml version="1.0" encoding="iso-8859-1"?>
<!-- Generator: Adobe Illustrator 23.0.2, SVG Export Plug-In . SVG Version: 6.00 Build 0)  -->
<svg version="1.1" id="&#x5716;&#x5C64;_1" xmlns="http://www.w3.org/2000/svg" xmlns:xlink="http://www.w3.org/1999/xlink" x="0px"
	 y="0px" viewBox="0 0 45.476 41.379" style="enable-background:new 0 0 45.476 41.379;" xml:space="preserve">
<g>
	<g>
		<polyline style="fill:none;stroke:#000000;stroke-linecap:round;stroke-linejoin:round;stroke-miterlimit:10;" points="
			26.793,29.213 0.5,29.213 0.5,0.5 35.303,0.5 35.303,22.622 		"/>
		
			<line style="fill:none;stroke:#000000;stroke-linecap:round;stroke-linejoin:round;stroke-miterlimit:10;" x1="0.5" y1="4.85" x2="35.303" y2="4.85"/>
		
			<rect x="3.762" y="8.238" style="fill:none;stroke:#000000;stroke-linecap:round;stroke-linejoin:round;stroke-miterlimit:10;" width="26.366" height="6.907"/>
		
			<line style="fill:none;stroke:#000000;stroke-linecap:round;stroke-linejoin:round;stroke-miterlimit:10;" x1="3.762" y1="18.566" x2="30.128" y2="18.566"/>
		
			<line style="fill:none;stroke:#000000;stroke-linecap:round;stroke-linejoin:round;stroke-miterlimit:10;" x1="3.762" y1="21.458" x2="27.718" y2="21.458"/>
		
			<line style="fill:none;stroke:#000000;stroke-linecap:round;stroke-linejoin:round;stroke-miterlimit:10;" x1="3.762" y1="24.349" x2="25.002" y2="24.349"/>
		<polyline style="fill:none;stroke:#000000;stroke-linecap:round;stroke-linejoin:round;stroke-miterlimit:10;" points="
			27.304,35.454 6.742,35.454 6.742,29.213 		"/>
		<polyline style="fill:none;stroke:#000000;stroke-linecap:round;stroke-linejoin:round;stroke-miterlimit:10;" points="
			35.303,6.742 41.545,6.742 41.545,25.198 		"/>
	</g>
	<path style="stroke:#000000;stroke-width:0.25;stroke-linecap:round;stroke-linejoin:round;stroke-miterlimit:10;" d="
		M37.834,29.624v-0.143c0-1.193-0.865-2.185-2-2.388v-0.642h-0.857v0.642c-1.135,0.203-2,1.196-2,2.388
		c0,1.029,0.68,1.921,1.775,2.328c0.148,0.055,0.298,0.104,0.448,0.153c0.256,0.084,0.52,0.17,0.763,0.286
		c0.645,0.306,1.015,0.833,1.015,1.445c0,0.866-0.705,1.571-1.571,1.571c-0.851,0-1.556-0.691-1.571-1.54l-0.003-0.14h-0.856
		l0.002,0.145c0.016,1.173,0.88,2.15,2,2.352v0.642h0.857v-0.642c1.135-0.203,2-1.196,2-2.388c0-0.542-0.181-1.04-0.554-1.522
		c-0.353-0.457-0.895-0.692-1.328-0.845c-0.119-0.042-0.241-0.082-0.364-0.122c-0.404-0.131-0.821-0.266-1.153-0.514
		c-0.371-0.278-0.602-0.741-0.602-1.209c0-0.867,0.705-1.571,1.571-1.571c0.867,0,1.571,0.705,1.571,1.571v0.143H37.834z"/>
	
		<ellipse transform="matrix(0.9732 -0.2298 0.2298 0.9732 -6.3101 8.9792)" style="fill:none;stroke:#000000;stroke-linecap:round;stroke-linejoin:round;stroke-miterlimit:10;" cx="35.404" cy="31.587" rx="8.913" ry="8.913"/>
</g>
</svg>
