<?xml version="1.0" encoding="iso-8859-1"?>
<!-- Generator: Adobe Illustrator 23.0.2, SVG Export Plug-In . SVG Version: 6.00 Build 0)  -->
<svg version="1.1" id="&#x5206;&#x96E2;&#x6A21;&#x5F0F;"
	 xmlns="http://www.w3.org/2000/svg" xmlns:xlink="http://www.w3.org/1999/xlink" x="0px" y="0px" viewBox="0 0 19.898 20"
	 style="enable-background:new 0 0 19.898 20;" xml:space="preserve">
<g>
	<rect x="2.466" y="8.966" style="fill:#0072BC;" width="10.501" height="0.621"/>
	<rect x="2.466" y="15.91" style="fill:#0072BC;" width="4.008" height="0.621"/>
	<rect x="2.466" y="3.759" style="fill:#0072BC;" width="2.958" height="0.621"/>
	<rect x="2.466" y="6.858" style="fill:#0072BC;" width="10.501" height="0.621"/>
	<path style="fill:#0072BC;" d="M0.621,19.379V0.621h10.461v3.729h3.729v4.884c0.03,0,0.059-0.005,0.089-0.005
		c0.18,0,0.357,0.011,0.532,0.027V3.911L11.522,0H0v20h12.022c-0.312-0.18-0.605-0.388-0.877-0.621H0.621z M11.704,1.061
		l2.669,2.668h-2.669V1.061z"/>
	<path style="fill:#0072BC;" d="M10.684,11.073H2.466v0.621h7.711C10.332,11.476,10.502,11.269,10.684,11.073z"/>
	<path style="fill:#0072BC;" d="M9.427,13.181H2.466v0.621h6.79C9.3,13.591,9.36,13.384,9.427,13.181z"/>
	<path style="fill:#0072BC;" d="M14.901,10.007c-2.755,0-4.996,2.241-4.996,4.996c0,2.755,2.241,4.996,4.996,4.996
		c2.755,0,4.997-2.241,4.997-4.996C19.898,12.248,17.656,10.007,14.901,10.007z M14.901,19.379c-2.412,0-4.375-1.963-4.375-4.375
		c0-2.412,1.963-4.375,4.375-4.375c2.412,0,4.375,1.963,4.375,4.375C19.276,17.416,17.313,19.379,14.901,19.379z"/>
	<g>
		<g>
			<path style="fill:#0072BC;" d="M14.95,17.555c-0.172,0-0.311-0.139-0.311-0.311V12.06c0-0.172,0.139-0.311,0.311-0.311
				s0.311,0.139,0.311,0.311v5.184C15.261,17.416,15.122,17.555,14.95,17.555z"/>
		</g>
		<g>
			<g>
				<polygon style="fill:#0072BC;" points="12.408,15.185 12.863,14.761 14.949,17.006 17.036,14.761 17.491,15.185 14.949,17.918 
									"/>
			</g>
		</g>
	</g>
</g>
</svg>
