<?xml version="1.0" encoding="iso-8859-1"?>
<!-- Generator: Adobe Illustrator 23.0.2, SVG Export Plug-In . SVG Version: 6.00 Build 0)  -->
<svg version="1.1" id="&#x5716;&#x5C64;_1" xmlns="http://www.w3.org/2000/svg" xmlns:xlink="http://www.w3.org/1999/xlink" x="0px"
	 y="0px" viewBox="0 0 50.098 40.5" style="enable-background:new 0 0 50.098 40.5;" xml:space="preserve">
<g>
	<path style="fill:none;stroke:#000000;stroke-linecap:round;stroke-linejoin:round;stroke-miterlimit:10;" d="M49.598,12.175
		v25.422c0,1.327-1.076,2.403-2.403,2.403H2.903C1.576,40,0.5,38.924,0.5,37.597V12.175"/>
	<g>
		<g>
			<path style="fill:none;stroke:#000000;stroke-linecap:round;stroke-linejoin:round;stroke-miterlimit:10;" d="M8.91,4.498
				c-0.114,0.268-0.18,0.561-0.18,0.871c0,1.257,1.019,2.275,2.275,2.275s2.275-1.019,2.275-2.275c0-0.31-0.066-0.603-0.18-0.871"/>
		</g>
		
			<line style="fill:none;stroke:#000000;stroke-linecap:round;stroke-linejoin:round;stroke-miterlimit:10;" x1="11.005" y1="5.329" x2="11.005" y2="0"/>
	</g>
	<g>
		<g>
			<path style="fill:none;stroke:#000000;stroke-linecap:round;stroke-linejoin:round;stroke-miterlimit:10;" d="M41.189,4.498
				c0.114,0.268,0.18,0.561,0.18,0.871c0,1.257-1.019,2.275-2.275,2.275c-1.257,0-2.275-1.019-2.275-2.275
				c0-0.31,0.066-0.603,0.18-0.871"/>
		</g>
		
			<line style="fill:none;stroke:#000000;stroke-linecap:round;stroke-linejoin:round;stroke-miterlimit:10;" x1="39.093" y1="5.329" x2="39.093" y2="0"/>
	</g>
	
		<line style="fill:none;stroke:#000000;stroke-linecap:round;stroke-linejoin:round;stroke-miterlimit:10;" x1="36.579" y1="1.477" x2="13.519" y2="1.477"/>
	<path style="fill:none;stroke:#000000;stroke-linecap:round;stroke-linejoin:round;stroke-miterlimit:10;" d="M8.49,1.477H2.903
		C1.576,1.477,0.5,2.553,0.5,3.88v8.295h49.098V3.88c0-1.327-1.076-2.403-2.403-2.403h-5.587"/>
	<g>
		
			<line style="fill:none;stroke:#000000;stroke-linecap:round;stroke-linejoin:round;stroke-miterlimit:10;" x1="14.411" y1="17.444" x2="14.411" y2="22.434"/>
		
			<line style="fill:none;stroke:#000000;stroke-linecap:round;stroke-linejoin:round;stroke-miterlimit:10;" x1="21.503" y1="17.444" x2="21.503" y2="22.434"/>
		
			<line style="fill:none;stroke:#000000;stroke-linecap:round;stroke-linejoin:round;stroke-miterlimit:10;" x1="28.595" y1="17.444" x2="28.595" y2="22.434"/>
		
			<line style="fill:none;stroke:#000000;stroke-linecap:round;stroke-linejoin:round;stroke-miterlimit:10;" x1="35.687" y1="17.444" x2="35.687" y2="22.434"/>
		
			<line style="fill:none;stroke:#000000;stroke-linecap:round;stroke-linejoin:round;stroke-miterlimit:10;" x1="14.411" y1="29.659" x2="14.411" y2="34.648"/>
		
			<line style="fill:none;stroke:#000000;stroke-linecap:round;stroke-linejoin:round;stroke-miterlimit:10;" x1="21.503" y1="29.659" x2="21.503" y2="34.648"/>
		
			<line style="fill:none;stroke:#000000;stroke-linecap:round;stroke-linejoin:round;stroke-miterlimit:10;" x1="28.595" y1="29.659" x2="28.595" y2="34.648"/>
		
			<line style="fill:none;stroke:#000000;stroke-linecap:round;stroke-linejoin:round;stroke-miterlimit:10;" x1="35.687" y1="29.659" x2="35.687" y2="34.648"/>
	</g>
	
		<line style="fill:none;stroke:#000000;stroke-linecap:round;stroke-linejoin:round;stroke-miterlimit:10;" x1="10.413" y1="26.087" x2="39.685" y2="26.087"/>
	
		<line style="fill:none;stroke:#000000;stroke-linecap:round;stroke-linejoin:round;stroke-miterlimit:10;" x1="33.517" y1="5.552" x2="16.581" y2="5.552"/>
</g>
</svg>
