<?xml version="1.0" encoding="iso-8859-1"?>
<!-- Generator: Adobe Illustrator 23.0.2, SVG Export Plug-In . SVG Version: 6.00 Build 0)  -->
<svg version="1.1" id="&#x5716;&#x5C64;_1" xmlns="http://www.w3.org/2000/svg" xmlns:xlink="http://www.w3.org/1999/xlink" x="0px"
	 y="0px" viewBox="0 0 35.01 40" style="enable-background:new 0 0 35.01 40;" xml:space="preserve">
<g>
	<path d="M20.919,5.299c-2.721-0.983-8.479-0.495-8.479,1.608c0,1.392,2.548,2.121,5.066,2.121c1.282,0,2.495-0.183,3.413-0.514
		c1.365-0.493,1.652-1.146,1.652-1.607C22.57,6.446,22.284,5.792,20.919,5.299z M20.608,7.652c-0.822,0.297-1.923,0.46-3.102,0.46
		c-2.685,0-4.15-0.796-4.15-1.205c0-0.41,1.465-1.207,4.15-1.207c1.179,0,2.281,0.163,3.102,0.46
		c0.719,0.26,1.047,0.569,1.047,0.747C21.655,7.085,21.327,7.393,20.608,7.652z"/>
	<path d="M34.553,12.898c0-0.253-0.205-0.458-0.458-0.458c-0.253,0-0.458,0.205-0.458,0.458c0,1.976-3.55,4.051-9.297,5v-4.62
		c5.879-0.939,10.67-3.104,10.671-6.372c0-2.015-1.94-3.825-5.463-5.098C26.316,0.643,22.04,0,17.506,0C9.02,0,0.001,2.421,0,6.907
		c0,3.268,4.792,5.433,10.671,6.372v4.62c-5.747-0.949-9.298-3.025-9.298-5c0-0.253-0.206-0.458-0.458-0.458
		c-0.253,0-0.458,0.206-0.458,0.458c0.001,2.691,4.152,4.946,10.214,5.925v4.319c-5.747-0.949-9.298-3.025-9.298-5
		c0-0.253-0.206-0.458-0.458-0.458c-0.253,0-0.458,0.206-0.458,0.458c0.001,2.691,4.152,4.946,10.214,5.925v3.169H5.462
		c-0.186,0-0.353,0.113-0.424,0.285c-0.07,0.172-0.03,0.369,0.102,0.499l12.044,11.848C17.274,39.956,17.389,40,17.505,40
		c0.116,0,0.232-0.044,0.321-0.132L29.87,28.019c0.132-0.13,0.173-0.327,0.102-0.499c-0.07-0.172-0.238-0.285-0.424-0.285H24.34
		v-3.168c6.062-0.979,10.213-3.234,10.213-5.925c0-0.253-0.205-0.458-0.458-0.458c-0.253,0-0.458,0.205-0.458,0.458
		c0,1.976-3.55,4.051-9.297,5v-4.319C30.402,17.844,34.553,15.589,34.553,12.898z M28.431,28.151L17.505,38.9L6.58,28.152h4.549
		c0.253,0,0.458-0.205,0.458-0.458V11.322l11.837-0.001v16.372c0,0.253,0.205,0.458,0.458,0.458H28.431z M24.206,10.539
		c-0.086-0.086-0.203-0.134-0.324-0.134l-12.753,0.001c-0.253,0-0.458,0.205-0.458,0.458v1.497C4.922,11.42,0.916,9.335,0.915,6.907
		c0-3.309,7.428-5.992,16.59-5.992c0.001,0,0,0,0.001,0c9.161,0,16.589,2.683,16.589,5.992c0,2.428-4.006,4.514-9.755,5.455v-1.499
		C24.34,10.741,24.291,10.625,24.206,10.539z"/>
</g>
</svg>
