<?xml version="1.0" encoding="iso-8859-1"?>
<!-- Generator: Adobe Illustrator 23.0.2, SVG Export Plug-In . SVG Version: 6.00 Build 0)  -->
<svg version="1.1" id="&#x5716;&#x5C64;_1" xmlns="http://www.w3.org/2000/svg" xmlns:xlink="http://www.w3.org/1999/xlink" x="0px"
	 y="0px" viewBox="0 0 45.2 44" style="enable-background:new 0 0 45.2 44;" xml:space="preserve">
<g>
	<g>
		<path style="fill:none;stroke:#000000;stroke-linecap:round;stroke-linejoin:round;stroke-miterlimit:10;" d="M10.425,27.397
			c0,1.413-1.146,2.559-2.559,2.559s-2.559-1.146-2.559-2.559c0-1.413,1.146-2.559,2.559-2.559S10.425,25.984,10.425,27.397z"/>
		
			<line style="fill:none;stroke:#000000;stroke-linecap:round;stroke-linejoin:round;stroke-miterlimit:10;" x1="7.867" y1="32.172" x2="7.867" y2="36.566"/>
		
			<line style="fill:none;stroke:#000000;stroke-linecap:round;stroke-linejoin:round;stroke-miterlimit:10;" x1="11.964" y1="43.5" x2="11.964" y2="37.373"/>
		
			<line style="fill:none;stroke:#000000;stroke-linecap:round;stroke-linejoin:round;stroke-miterlimit:10;" x1="3.77" y1="37.373" x2="3.77" y2="43.5"/>
		<path style="fill:none;stroke:#000000;stroke-linecap:round;stroke-linejoin:round;stroke-miterlimit:10;" d="M0.5,43.5v-7.917
			c0-1.884,1.007-3.412,2.892-3.412l0,0h8.95"/>
		<path style="fill:none;stroke:#000000;stroke-linecap:round;stroke-linejoin:round;stroke-miterlimit:10;" d="M12.342,32.172
			L12.342,32.172c1.884,0,2.892,1.527,2.892,3.412v4.381"/>
	</g>
	<g>
		<path style="fill:none;stroke:#000000;stroke-linecap:round;stroke-linejoin:round;stroke-miterlimit:10;" d="M25.159,27.397
			c0,1.413-1.146,2.559-2.559,2.559c-1.413,0-2.559-1.146-2.559-2.559c0-1.413,1.146-2.559,2.559-2.559
			C24.013,24.839,25.159,25.984,25.159,27.397z"/>
		
			<line style="fill:none;stroke:#000000;stroke-linecap:round;stroke-linejoin:round;stroke-miterlimit:10;" x1="22.6" y1="32.172" x2="22.6" y2="36.566"/>
		
			<line style="fill:none;stroke:#000000;stroke-linecap:round;stroke-linejoin:round;stroke-miterlimit:10;" x1="26.697" y1="43.5" x2="26.697" y2="37.373"/>
		
			<line style="fill:none;stroke:#000000;stroke-linecap:round;stroke-linejoin:round;stroke-miterlimit:10;" x1="18.503" y1="37.373" x2="18.503" y2="43.5"/>
		<path style="fill:none;stroke:#000000;stroke-linecap:round;stroke-linejoin:round;stroke-miterlimit:10;" d="M15.233,39.964
			v-4.381c0-1.884,1.007-3.412,2.892-3.412l0,0h8.95"/>
		<path style="fill:none;stroke:#000000;stroke-linecap:round;stroke-linejoin:round;stroke-miterlimit:10;" d="M27.075,32.172
			L27.075,32.172c1.884,0,2.892,1.527,2.892,3.412v4.381"/>
	</g>
	<g>
		<path style="fill:none;stroke:#000000;stroke-linecap:round;stroke-linejoin:round;stroke-miterlimit:10;" d="M39.892,27.397
			c0,1.413-1.146,2.559-2.559,2.559c-1.413,0-2.559-1.146-2.559-2.559c0-1.413,1.146-2.559,2.559-2.559
			C38.746,24.839,39.892,25.984,39.892,27.397z"/>
		
			<line style="fill:none;stroke:#000000;stroke-linecap:round;stroke-linejoin:round;stroke-miterlimit:10;" x1="37.333" y1="32.172" x2="37.333" y2="36.566"/>
		
			<line style="fill:none;stroke:#000000;stroke-linecap:round;stroke-linejoin:round;stroke-miterlimit:10;" x1="41.43" y1="43.5" x2="41.43" y2="37.373"/>
		
			<line style="fill:none;stroke:#000000;stroke-linecap:round;stroke-linejoin:round;stroke-miterlimit:10;" x1="33.236" y1="37.373" x2="33.236" y2="43.5"/>
		<path style="fill:none;stroke:#000000;stroke-linecap:round;stroke-linejoin:round;stroke-miterlimit:10;" d="M29.967,39.964
			v-4.381c0-1.884,1.007-3.412,2.892-3.412l0,0h8.95"/>
		<path style="fill:none;stroke:#000000;stroke-linecap:round;stroke-linejoin:round;stroke-miterlimit:10;" d="M41.808,32.172
			L41.808,32.172c1.884,0,2.892,1.527,2.892,3.412V43.5"/>
	</g>
	
		<rect x="7.238" y="3.24" style="fill:none;stroke:#000000;stroke-linecap:round;stroke-linejoin:round;stroke-miterlimit:10;" width="30.724" height="15.901"/>
	<path style="fill:none;stroke:#000000;stroke-linecap:round;stroke-linejoin:round;stroke-miterlimit:10;" d="M38.334,3.24H6.865
		c-0.624,0-1.13-0.613-1.13-1.37l0,0c0-0.757,0.506-1.37,1.13-1.37h31.469c0.624,0,1.13,0.613,1.13,1.37l0,0
		C39.465,2.627,38.959,3.24,38.334,3.24z"/>
	
		<line style="fill:none;stroke:#000000;stroke-linecap:round;stroke-linejoin:round;stroke-miterlimit:10;" x1="23.793" y1="19.142" x2="23.793" y2="21.971"/>
	
		<line style="fill:none;stroke:#000000;stroke-linecap:round;stroke-linejoin:round;stroke-miterlimit:10;" x1="21.406" y1="21.971" x2="21.406" y2="19.142"/>
	
		<line style="fill:none;stroke:#000000;stroke-linecap:round;stroke-linejoin:round;stroke-miterlimit:10;" x1="3.77" y1="43.5" x2="41.43" y2="43.5"/>
	<polyline style="fill:none;stroke:#000000;stroke-linecap:round;stroke-linejoin:round;stroke-miterlimit:10;" points="
		12.576,14.369 18.083,10.146 20.69,12.799 25.109,9.344 27.29,11.598 32.624,7.605 	"/>
</g>
</svg>
