<?xml version="1.0" encoding="iso-8859-1"?>
<!-- Generator: Adobe Illustrator 23.0.2, SVG Export Plug-In . SVG Version: 6.00 Build 0)  -->
<svg version="1.1" id="&#x5716;&#x5C64;_1" xmlns="http://www.w3.org/2000/svg" xmlns:xlink="http://www.w3.org/1999/xlink" x="0px"
	 y="0px" viewBox="0 0 42.116 41" style="enable-background:new 0 0 42.116 41;" xml:space="preserve">
<g>
	<g>
		<path style="fill:none;stroke:#000000;stroke-linecap:round;stroke-linejoin:round;stroke-miterlimit:10;" d="M9.733,25.521
			c0,1.315-1.066,2.38-2.38,2.38c-1.315,0-2.38-1.066-2.38-2.38c0-1.315,1.066-2.38,2.38-2.38
			C8.667,23.141,9.733,24.206,9.733,25.521z"/>
		
			<line style="fill:none;stroke:#000000;stroke-linecap:round;stroke-linejoin:round;stroke-miterlimit:10;" x1="7.353" y1="29.962" x2="7.353" y2="34.05"/>
		
			<line style="fill:none;stroke:#000000;stroke-linecap:round;stroke-linejoin:round;stroke-miterlimit:10;" x1="11.164" y1="40.5" x2="11.164" y2="34.801"/>
		
			<line style="fill:none;stroke:#000000;stroke-linecap:round;stroke-linejoin:round;stroke-miterlimit:10;" x1="3.541" y1="34.801" x2="3.541" y2="40.5"/>
		<path style="fill:none;stroke:#000000;stroke-linecap:round;stroke-linejoin:round;stroke-miterlimit:10;" d="M0.5,40.5v-7.364
			c0-1.753,0.937-3.174,2.69-3.174l0,0h8.326"/>
		<path style="fill:none;stroke:#000000;stroke-linecap:round;stroke-linejoin:round;stroke-miterlimit:10;" d="M11.516,29.962
			L11.516,29.962c1.753,0,2.69,1.421,2.69,3.174v4.075"/>
	</g>
	<g>
		<path style="fill:none;stroke:#000000;stroke-linecap:round;stroke-linejoin:round;stroke-miterlimit:10;" d="M23.438,25.521
			c0,1.315-1.066,2.38-2.38,2.38c-1.315,0-2.38-1.066-2.38-2.38c0-1.315,1.066-2.38,2.38-2.38
			C22.373,23.141,23.438,24.206,23.438,25.521z"/>
		
			<line style="fill:none;stroke:#000000;stroke-linecap:round;stroke-linejoin:round;stroke-miterlimit:10;" x1="21.058" y1="29.962" x2="21.058" y2="34.05"/>
		
			<line style="fill:none;stroke:#000000;stroke-linecap:round;stroke-linejoin:round;stroke-miterlimit:10;" x1="24.869" y1="40.5" x2="24.869" y2="34.801"/>
		
			<line style="fill:none;stroke:#000000;stroke-linecap:round;stroke-linejoin:round;stroke-miterlimit:10;" x1="17.247" y1="34.801" x2="17.247" y2="40.5"/>
		<path style="fill:none;stroke:#000000;stroke-linecap:round;stroke-linejoin:round;stroke-miterlimit:10;" d="M14.205,37.211
			v-4.075c0-1.753,0.937-3.174,2.69-3.174l0,0h8.326"/>
		<path style="fill:none;stroke:#000000;stroke-linecap:round;stroke-linejoin:round;stroke-miterlimit:10;" d="M25.221,29.962
			L25.221,29.962c1.753,0,2.69,1.421,2.69,3.174v4.075"/>
	</g>
	<g>
		<path style="fill:none;stroke:#000000;stroke-linecap:round;stroke-linejoin:round;stroke-miterlimit:10;" d="M37.144,25.521
			c0,1.315-1.066,2.38-2.38,2.38c-1.315,0-2.38-1.066-2.38-2.38c0-1.315,1.066-2.38,2.38-2.38
			C36.078,23.141,37.144,24.206,37.144,25.521z"/>
		
			<line style="fill:none;stroke:#000000;stroke-linecap:round;stroke-linejoin:round;stroke-miterlimit:10;" x1="34.763" y1="29.962" x2="34.763" y2="34.05"/>
		
			<line style="fill:none;stroke:#000000;stroke-linecap:round;stroke-linejoin:round;stroke-miterlimit:10;" x1="38.575" y1="40.5" x2="38.575" y2="34.801"/>
		
			<line style="fill:none;stroke:#000000;stroke-linecap:round;stroke-linejoin:round;stroke-miterlimit:10;" x1="30.952" y1="34.801" x2="30.952" y2="40.5"/>
		<path style="fill:none;stroke:#000000;stroke-linecap:round;stroke-linejoin:round;stroke-miterlimit:10;" d="M27.911,37.211
			v-4.075c0-1.753,0.937-3.174,2.69-3.174l0,0h8.326"/>
		<path style="fill:none;stroke:#000000;stroke-linecap:round;stroke-linejoin:round;stroke-miterlimit:10;" d="M38.926,29.962
			L38.926,29.962c1.753,0,2.69,1.421,2.69,3.174V40.5"/>
	</g>
	
		<rect x="6.768" y="3.049" style="fill:none;stroke:#000000;stroke-linecap:round;stroke-linejoin:round;stroke-miterlimit:10;" width="28.58" height="14.792"/>
	<path style="fill:none;stroke:#000000;stroke-linecap:round;stroke-linejoin:round;stroke-miterlimit:10;" d="M35.695,3.049H6.421
		c-0.581,0-1.052-0.571-1.052-1.275l0,0C5.37,1.071,5.84,0.5,6.421,0.5h29.274c0.581,0,1.052,0.571,1.052,1.275l0,0
		C36.746,2.479,36.276,3.049,35.695,3.049z"/>
	
		<line style="fill:none;stroke:#000000;stroke-linecap:round;stroke-linejoin:round;stroke-miterlimit:10;" x1="22.168" y1="17.841" x2="22.168" y2="20.473"/>
	
		<line style="fill:none;stroke:#000000;stroke-linecap:round;stroke-linejoin:round;stroke-miterlimit:10;" x1="19.948" y1="20.473" x2="19.948" y2="17.841"/>
	
		<line style="fill:none;stroke:#000000;stroke-linecap:round;stroke-linejoin:round;stroke-miterlimit:10;" x1="3.541" y1="40.5" x2="38.575" y2="40.5"/>
	<polyline style="fill:none;stroke:#000000;stroke-linecap:round;stroke-linejoin:round;stroke-miterlimit:10;" points="
		11.734,13.401 16.856,9.473 19.281,11.941 23.393,8.727 25.421,10.824 30.382,7.109 	"/>
</g>
</svg>
