<?xml version="1.0" encoding="iso-8859-1"?>
<!-- Generator: Adobe Illustrator 23.0.2, SVG Export Plug-In . SVG Version: 6.00 Build 0)  -->
<svg version="1.1" id="&#x5716;&#x5C64;_1" xmlns="http://www.w3.org/2000/svg" xmlns:xlink="http://www.w3.org/1999/xlink" x="0px"
	 y="0px" viewBox="0 0 45.878 41.542" style="enable-background:new 0 0 45.878 41.542;" xml:space="preserve">
<path style="fill:none;stroke:#000000;stroke-linecap:round;stroke-linejoin:round;stroke-miterlimit:10;" d="M45.378,8.769
	c0-4.267-3.494-7.727-7.805-7.727c-4.311,0-7.805,3.459-7.805,7.727c0,1.612,0.5,3.107,1.352,4.346l6.453,9.391l6.454-9.391
	C44.88,11.876,45.378,10.381,45.378,8.769z"/>
<circle style="fill:none;stroke:#000000;stroke-linecap:round;stroke-linejoin:round;stroke-miterlimit:10;" cx="37.573" cy="8.847" r="3.902"/>
<path style="fill:none;stroke:#000000;stroke-linecap:round;stroke-linejoin:round;stroke-miterlimit:10;" d="M6.52,36.164
	c3.288-3.034,7.698-4.878,12.517-4.878s9.229,1.844,12.517,4.878"/>
<ellipse style="fill:none;stroke:#000000;stroke-linecap:round;stroke-linejoin:round;stroke-miterlimit:10;" cx="19.037" cy="22.506" rx="9.756" ry="18.537"/>
<line style="fill:none;stroke:#000000;stroke-linecap:round;stroke-linejoin:round;stroke-miterlimit:10;" x1="0.5" y1="22.506" x2="37.573" y2="22.506"/>
<path style="fill:none;stroke:#000000;stroke-linecap:round;stroke-linejoin:round;stroke-miterlimit:10;" d="M29.883,7.495
	c-3.052-2.209-6.791-3.527-10.847-3.527C8.799,3.969,0.5,12.268,0.5,22.506s8.299,18.537,18.537,18.537
	c10.237,0,18.537-8.299,18.537-18.537"/>
<path style="fill:none;stroke:#000000;stroke-linecap:round;stroke-linejoin:round;stroke-miterlimit:10;" d="M6.52,8.847
	c3.288,3.034,7.698,4.878,12.517,4.878c4.061,0,7.822-1.321,10.875-3.548"/>
<line style="fill:none;stroke:#000000;stroke-linecap:round;stroke-linejoin:round;stroke-miterlimit:10;" x1="19.037" y1="3.969" x2="19.037" y2="41.042"/>
</svg>
