<?xml version="1.0" encoding="iso-8859-1"?>
<!-- Generator: Adobe Illustrator 23.0.2, SVG Export Plug-In . SVG Version: 6.00 Build 0)  -->
<svg version="1.1" id="&#x5716;&#x5C64;_1" xmlns="http://www.w3.org/2000/svg" xmlns:xlink="http://www.w3.org/1999/xlink" x="0px"
	 y="0px" viewBox="0 0 35 35" style="enable-background:new 0 0 35 35;" xml:space="preserve">
<path style="fill:#FFFFFF;" d="M17.5,35C7.851,35,0,27.149,0,17.5S7.851,0,17.5,0S35,7.851,35,17.5S27.149,35,17.5,35z M25.75,16.5
	H18.5V10c0-0.553-0.448-1-1-1s-1,0.447-1,1v6.5H9.25c-0.552,0-1,0.447-1,1s0.448,1,1,1h7.25V25c0,0.553,0.448,1,1,1s1-0.447,1-1
	v-6.5h7.25c0.552,0,1-0.447,1-1S26.302,16.5,25.75,16.5z"/>
</svg>
