<?xml version="1.0" encoding="iso-8859-1"?>
<!-- Generator: Adobe Illustrator 23.0.2, SVG Export Plug-In . SVG Version: 6.00 Build 0)  -->
<svg version="1.1" id="&#x5206;&#x96E2;&#x6A21;&#x5F0F;"
	 xmlns="http://www.w3.org/2000/svg" xmlns:xlink="http://www.w3.org/1999/xlink" x="0px" y="0px" viewBox="0 0 20.7 20.7"
	 style="enable-background:new 0 0 20.7 20.7;" xml:space="preserve">
<g>
	<g>
		<path style="fill:none;stroke:#FFFFFF;stroke-width:0.7;stroke-linecap:round;stroke-miterlimit:10;" d="M12.652,12.424
			l-0.335-1.677c-0.074-0.37-0.275-0.706-0.566-0.947c-0.186-0.153-0.375-0.252-0.555-0.291L9.765,9.094
			C9.733,9.085,9.704,9.071,9.677,9.053C9.602,9.002,9.552,8.921,9.542,8.83L9.476,8.264c0.401-0.311,0.697-0.776,0.84-1.32
			c0.256-0.023,0.452-0.307,0.452-0.666c0-0.331-0.167-0.6-0.395-0.657"/>
		<path style="fill:none;stroke:#FFFFFF;stroke-width:0.7;stroke-linecap:round;stroke-miterlimit:10;" d="M6.333,5.625
			C6.111,5.688,5.951,5.953,5.951,6.278c0,0.358,0.195,0.642,0.45,0.666c0.143,0.543,0.439,1.008,0.84,1.32L7.176,8.83
			c-0.01,0.09-0.06,0.172-0.135,0.223C7.014,9.071,6.984,9.085,6.953,9.094L5.526,9.508c-0.185,0.041-0.374,0.14-0.56,0.293
			c-0.293,0.242-0.493,0.578-0.567,0.947l-0.335,1.677"/>
		<path style="fill:none;stroke:#FFFFFF;stroke-width:0.7;stroke-linecap:round;stroke-miterlimit:10;" d="M10.373,5.621
			c0,0,0.118-2.372-2.014-2.372c-2.132,0-2.026,2.376-2.026,2.376"/>
		<path style="fill:none;stroke:#FFFFFF;stroke-width:0.7;stroke-linecap:round;stroke-miterlimit:10;" d="M6.485,4.606
			C6.568,4.436,6.73,4.305,6.908,4.24C7.197,4.135,7.521,4.219,7.8,4.347c0.404,0.184,0.757,0.401,1.21,0.451
			c0.431,0.048,0.827,0,1.214-0.198"/>
		
			<line style="fill:none;stroke:#FFFFFF;stroke-width:0.7;stroke-linecap:round;stroke-miterlimit:10;" x1="7.04" y1="9.053" x2="8.359" y2="10.419"/>
		
			<line style="fill:none;stroke:#FFFFFF;stroke-width:0.7;stroke-linecap:round;stroke-miterlimit:10;" x1="9.677" y1="9.053" x2="8.359" y2="10.419"/>
		
			<line style="fill:none;stroke:#FFFFFF;stroke-width:0.7;stroke-linecap:round;stroke-miterlimit:10;" x1="8.359" y1="10.419" x2="8.359" y2="11.319"/>
	</g>
	
		<ellipse transform="matrix(0.9818 -0.19 0.19 0.9818 -1.4361 1.7407)" style="fill:none;stroke:#FFFFFF;stroke-width:0.7;stroke-linecap:round;stroke-miterlimit:10;" cx="8.359" cy="8.359" rx="8.009" ry="8.009"/>
	<path style="fill:none;stroke:#FFFFFF;stroke-width:0.7;stroke-linecap:round;stroke-miterlimit:10;" d="M8.572,17.741
		c5.064,0,9.17-4.105,9.17-9.169"/>
	<path style="fill:none;stroke:#FFFFFF;stroke-width:0.7;stroke-linecap:round;stroke-miterlimit:10;" d="M15.761,14.263
		l4.278,4.278c0.414,0.414,0.414,1.085,0,1.498l0,0c-0.414,0.414-1.085,0.414-1.498,0l-4.278-4.278"/>
</g>
</svg>
