<?xml version="1.0" encoding="iso-8859-1"?>
<!-- Generator: Adobe Illustrator 23.0.2, SVG Export Plug-In . SVG Version: 6.00 Build 0)  -->
<svg version="1.1" id="&#x5716;&#x5C64;_1" xmlns="http://www.w3.org/2000/svg" xmlns:xlink="http://www.w3.org/1999/xlink" x="0px"
	 y="0px" viewBox="0 0 66.947 41" style="enable-background:new 0 0 66.947 41;" xml:space="preserve">
<g>
	<path style="fill:#FFFFFF;stroke:#FFFFFF;stroke-linecap:round;stroke-linejoin:round;stroke-miterlimit:10;" d="M65.846,4.53
		L34.218,0.5L2.647,16.688c0,0-0.429,0.264-0.429,0.925l9.867,2.929l1.266-0.65l15.858,3.337l0.958,1.09l14.8,2.015L66.441,5.323
		C66.441,5.323,66.551,4.729,65.846,4.53z"/>
	<path style="fill:#FFFFFF;stroke:#FFFFFF;stroke-linecap:round;stroke-linejoin:round;stroke-miterlimit:10;" d="M66.441,5.323
		v6.541l-21.87,24.381c0,0-23.39-1.891-44.071-10.229v-7.655l1.718-0.749"/>
	<path style="fill:#FFFFFF;stroke:#FFFFFF;stroke-linecap:round;stroke-linejoin:round;stroke-miterlimit:10;" d="M65.998,12.358
		v2.678L44.824,40.5c0,0-29.325-3.197-41.615-8.549l-2.246-2.246v-3.37"/>
	<path style="fill:#FFFFFF;stroke:#FFFFFF;stroke-linecap:round;stroke-linejoin:round;stroke-miterlimit:10;" d="M37.813,0.958
		L7.701,17.226l3.767,1.114c0,0,7.202-2.841,16.65-1.057c0,0,6.517,1.52,6.1,5.682l8.503,1.255l21.63-19.88"/>
	<polyline style="fill:#FFFFFF;stroke:#FFFFFF;stroke-linecap:round;stroke-linejoin:round;stroke-miterlimit:10;" points="
		0.5,18.79 11.468,22.193 11.468,23.626 28.119,27.341 28.119,25.41 44.824,28.314 44.571,36.246 	"/>
	
		<line style="fill:#FFFFFF;stroke:#FFFFFF;stroke-linecap:round;stroke-linejoin:round;stroke-miterlimit:10;" x1="28.119" y1="25.41" x2="29.803" y2="23.905"/>
	<path style="fill:#FFFFFF;stroke:#FFFFFF;stroke-linecap:round;stroke-linejoin:round;stroke-miterlimit:10;" d="M11.468,22.877
		c0,0,0.796-1.135,4.263-2.483"/>
	
		<line style="fill:#FFFFFF;stroke:#FFFFFF;stroke-linecap:round;stroke-linejoin:round;stroke-miterlimit:10;" x1="12.475" y1="22.019" x2="28.119" y2="25.41"/>
	
		<line style="fill:#FFFFFF;stroke:#FFFFFF;stroke-linecap:round;stroke-linejoin:round;stroke-miterlimit:10;" x1="50.652" y1="2.594" x2="28.961" y2="17.528"/>
	
		<line style="fill:#FFFFFF;stroke:#FFFFFF;stroke-linecap:round;stroke-linejoin:round;stroke-miterlimit:10;" x1="48.4" y1="2.307" x2="26.68" y2="17.044"/>
	
		<line style="fill:#FFFFFF;stroke:#FFFFFF;stroke-linecap:round;stroke-linejoin:round;stroke-miterlimit:10;" x1="46.051" y1="2.09" x2="24.618" y2="16.81"/>
</g>
</svg>
