<?xml version="1.0" encoding="iso-8859-1"?>
<!-- Generator: Adobe Illustrator 23.0.2, SVG Export Plug-In . SVG Version: 6.00 Build 0)  -->
<svg version="1.1" id="&#x5716;&#x5C64;_1" xmlns="http://www.w3.org/2000/svg" xmlns:xlink="http://www.w3.org/1999/xlink" x="0px"
	 y="0px" viewBox="0 0 42.182 41.2" style="enable-background:new 0 0 42.182 41.2;" xml:space="preserve">
<g>
	<path style="fill:none;stroke:#000000;stroke-width:1.2;stroke-linecap:round;stroke-linejoin:round;stroke-miterlimit:10;" d="
		M32.6,9.489h7.203c1.195,0,2.049,1.155,1.7,2.297L37.429,25.12c-0.228,0.748-0.918,1.258-1.7,1.258H14.822"/>
	<path style="fill:none;stroke:#000000;stroke-width:1.2;stroke-linecap:round;stroke-linejoin:round;stroke-miterlimit:10;" d="
		M37.044,32.6H17.923c-0.785,0-1.477-0.515-1.703-1.267L8.98,7.2C8.754,6.448,8.062,5.933,7.277,5.933H0.6"/>
	
		<circle style="fill:none;stroke:#000000;stroke-width:1.2;stroke-linecap:round;stroke-linejoin:round;stroke-miterlimit:10;" cx="16.594" cy="37.927" r="2.673"/>
	
		<circle style="fill:none;stroke:#000000;stroke-width:1.2;stroke-linecap:round;stroke-linejoin:round;stroke-miterlimit:10;" cx="34.384" cy="37.927" r="2.673"/>
	
		<line style="fill:none;stroke:#000000;stroke-width:1.2;stroke-linecap:round;stroke-linejoin:round;stroke-miterlimit:10;" x1="20.156" y1="9.489" x2="9.736" y2="9.489"/>
	<path style="fill:none;stroke:#000000;stroke-width:1.2;stroke-linecap:round;stroke-linejoin:round;stroke-miterlimit:10;" d="
		M29.044,11.267C29.044,5.376,33.82,0.6,39.711,0.6h-6.222c-5.891,0-10.667,4.776-10.667,10.667v1.778h-3.556l7.111,8.889
		l6.222-8.889h-3.556V11.267z"/>
</g>
</svg>
