<?xml version="1.0" encoding="iso-8859-1"?>
<!-- Generator: Adobe Illustrator 23.0.2, SVG Export Plug-In . SVG Version: 6.00 Build 0)  -->
<svg version="1.1" id="&#x5716;&#x5C64;_1" xmlns="http://www.w3.org/2000/svg" xmlns:xlink="http://www.w3.org/1999/xlink" x="0px"
	 y="0px" viewBox="0 0 38.699 41" style="enable-background:new 0 0 38.699 41;" xml:space="preserve">
<g>
	<path style="fill:none;stroke:#000000;stroke-linecap:round;stroke-linejoin:round;stroke-miterlimit:10;" d="M30.785,27.305
		c-0.373-0.987-1-1.871-1.822-2.55c-0.689-0.567-1.387-0.932-2.055-1.078l-5.3-1.539c-0.115-0.033-0.224-0.084-0.323-0.151
		c-0.279-0.188-0.463-0.489-0.502-0.824l-0.245-2.097c1.484-1.153,2.582-2.875,3.109-4.886c0.946-0.084,1.673-1.136,1.673-2.464
		c0-1.227-0.616-2.22-1.461-2.432"/>
	<path style="fill:none;stroke:#000000;stroke-linecap:round;stroke-linejoin:round;stroke-miterlimit:10;" d="M8.902,9.297
		c-0.821,0.234-1.415,1.213-1.415,2.418c0,1.327,0.723,2.378,1.668,2.464c0.53,2.009,1.627,3.732,3.11,4.886l-0.242,2.097
		c-0.039,0.335-0.222,0.636-0.501,0.824c-0.099,0.067-0.208,0.118-0.323,0.151l-5.282,1.533c-0.685,0.151-1.384,0.516-2.072,1.084
		c-1.083,0.895-1.827,2.139-2.098,3.506l-1.24,6.207c-0.02,0.087,0.004,0.179,0.06,0.248c0.057,0.067,0.14,0.108,0.231,0.108h25.617
		"/>
	<path style="fill:none;stroke:#000000;stroke-linecap:round;stroke-linejoin:round;stroke-miterlimit:10;" d="M23.859,9.283
		c0,0,0.438-8.783-7.457-8.783c-7.895,0-7.5,8.797-7.5,8.797"/>
	<path style="fill:none;stroke:#000000;stroke-linecap:round;stroke-linejoin:round;stroke-miterlimit:10;" d="M9.464,5.523
		c0.307-0.63,0.909-1.114,1.567-1.354c1.07-0.389,2.269-0.078,3.304,0.395c1.495,0.683,2.802,1.486,4.478,1.67
		c1.597,0.176,3.061-0.001,4.496-0.733"/>
	
		<line style="fill:none;stroke:#000000;stroke-linecap:round;stroke-linejoin:round;stroke-miterlimit:10;" x1="11.522" y1="21.987" x2="16.402" y2="27.046"/>
	
		<line style="fill:none;stroke:#000000;stroke-linecap:round;stroke-linejoin:round;stroke-miterlimit:10;" x1="21.282" y1="21.987" x2="16.402" y2="27.046"/>
	<g>
		
			<circle style="fill:none;stroke:#000000;stroke-linecap:round;stroke-linejoin:round;stroke-miterlimit:10;" cx="32.304" cy="34.606" r="5.894"/>
		
			<line style="fill:none;stroke:#000000;stroke-linecap:round;stroke-linejoin:round;stroke-miterlimit:10;" x1="32.304" y1="37.574" x2="32.304" y2="31.638"/>
		
			<line style="fill:none;stroke:#000000;stroke-linecap:round;stroke-linejoin:round;stroke-miterlimit:10;" x1="29.337" y1="34.606" x2="35.272" y2="34.606"/>
	</g>
	<polyline style="fill:none;stroke:#000000;stroke-linecap:round;stroke-linejoin:round;stroke-miterlimit:10;" points="
		9.147,24.118 16.381,31.858 16.402,31.838 16.423,31.858 23.657,24.118 	"/>
</g>
</svg>
