<?xml version="1.0" encoding="iso-8859-1"?>
<!-- Generator: Adobe Illustrator 23.0.2, SVG Export Plug-In . SVG Version: 6.00 Build 0)  -->
<svg version="1.1" id="&#x5716;&#x5C64;_1" xmlns="http://www.w3.org/2000/svg" xmlns:xlink="http://www.w3.org/1999/xlink" x="0px"
	 y="0px" viewBox="0 0 63.366 37" style="enable-background:new 0 0 63.366 37;" xml:space="preserve">
<g>
	
		<line style="fill:none;stroke:#000000;stroke-linecap:round;stroke-linejoin:round;stroke-miterlimit:10;" x1="7.598" y1="17.601" x2="0.5" y2="17.601"/>
	
		<line style="fill:none;stroke:#000000;stroke-linecap:round;stroke-linejoin:round;stroke-miterlimit:10;" x1="8.993" y1="11.177" x2="2.508" y2="8.35"/>
	
		<line style="fill:none;stroke:#000000;stroke-linecap:round;stroke-linejoin:round;stroke-miterlimit:10;" x1="12.935" y1="5.864" x2="8.186" y2="0.7"/>
	
		<line style="fill:none;stroke:#000000;stroke-linecap:round;stroke-linejoin:round;stroke-miterlimit:10;" x1="12.935" y1="29.337" x2="8.186" y2="34.502"/>
	
		<line style="fill:none;stroke:#000000;stroke-linecap:round;stroke-linejoin:round;stroke-miterlimit:10;" x1="8.993" y1="24.024" x2="2.508" y2="26.851"/>
	<g>
		<polyline style="fill:none;stroke:#000000;stroke-linecap:round;stroke-linejoin:round;stroke-miterlimit:10;" points="
			22.346,3.256 51.479,12.871 51.479,18.5 51.479,24.129 22.346,33.744 		"/>
		<path style="fill:none;stroke:#000000;stroke-linecap:round;stroke-linejoin:round;stroke-miterlimit:10;" d="M22.346,28.327
			V2.439c0-1.071-0.868-1.939-1.939-1.939l0,0c-1.071,0-1.94,0.868-1.94,1.939v32.121c0,1.071,0.868,1.939,1.94,1.939l0,0
			c1.071,0,1.939-0.868,1.939-1.939v-6.352"/>
		<polyline style="fill:none;stroke:#000000;stroke-linecap:round;stroke-linejoin:round;stroke-miterlimit:10;" points="
			58.375,25.124 51.479,24.035 51.479,12.871 58.375,11.782 		"/>
		<path style="fill:none;stroke:#000000;stroke-linecap:round;stroke-linejoin:round;stroke-miterlimit:10;" d="M58.375,24.602
			c0,1.24,1.005,2.246,2.246,2.246l0,0c1.24,0,2.246-1.005,2.246-2.246V12.304c0-1.24-1.005-2.246-2.246-2.246l0,0
			c-1.24,0-2.246,1.005-2.246,2.246v12.269"/>
		<path style="fill:none;stroke:#000000;stroke-linecap:round;stroke-linejoin:round;stroke-miterlimit:10;" d="M43.449,26.59v6.775
			c0,1.259-1.021,2.28-2.28,2.28h-4.711c-1.259,0-2.28-1.021-2.28-2.28v-2.91"/>
	</g>
</g>
</svg>
