<?xml version="1.0" encoding="iso-8859-1"?>
<!-- Generator: Adobe Illustrator 23.0.2, SVG Export Plug-In . SVG Version: 6.00 Build 0)  -->
<svg version="1.1" id="Ebene_1" xmlns="http://www.w3.org/2000/svg" xmlns:xlink="http://www.w3.org/1999/xlink" x="0px" y="0px"
	 viewBox="0 0 15.432 20" style="enable-background:new 0 0 15.432 20;" xml:space="preserve">
<g>
	<path style="fill:#0072BC;" d="M8.027,7.008V5.777H7.406v1.231c-1.753,0.15-3.153,1.549-3.303,3.303H2.871v0.621h1.231
		c0.15,1.753,1.549,3.153,3.303,3.302v1.231h0.621v-1.231c1.753-0.15,3.152-1.549,3.302-3.302h1.231v-0.621h-1.231
		C11.18,8.558,9.78,7.158,8.027,7.008z M10.707,10.932c-0.146,1.411-1.27,2.535-2.68,2.681v-1.2H7.406v1.2
		c-1.411-0.146-2.536-1.27-2.681-2.681h1.199v-0.621H4.725C4.87,8.9,5.995,7.776,7.406,7.63v1.2h0.621v-1.2
		c1.411,0.146,2.535,1.27,2.68,2.681H9.508v0.621H10.707z"/>
	<path style="fill:#0072BC;" d="M7.716,10.181c-0.243,0-0.44,0.197-0.44,0.441c0,0.243,0.197,0.441,0.44,0.441
		c0.243,0,0.441-0.197,0.441-0.441C8.156,10.378,7.959,10.181,7.716,10.181z"/>
	<path style="fill:#0072BC;" d="M11.521,0H0v20h15.432V3.911L11.521,0z M11.703,1.061l2.668,2.668h-2.668V1.061z M14.811,19.379
		H0.621V0.621h10.46V4.35h3.729V19.379z"/>
</g>
</svg>
