<?xml version="1.0" encoding="iso-8859-1"?>
<!-- Generator: Adobe Illustrator 23.0.2, SVG Export Plug-In . SVG Version: 6.00 Build 0)  -->
<svg version="1.1" id="Ebene_1" xmlns="http://www.w3.org/2000/svg" xmlns:xlink="http://www.w3.org/1999/xlink" x="0px" y="0px"
	 viewBox="0 0 15.888 20" style="enable-background:new 0 0 15.888 20;" xml:space="preserve">
<g>
	<polygon style="fill:#FFFFFF;" points="13.335,19.405 0.595,19.405 0.595,2.553 1.214,2.553 1.214,1.958 0,1.958 0,20 13.93,20 
		13.93,18.786 13.335,18.786 	"/>
	<path style="fill:#FFFFFF;" d="M12.357,0H1.959v18.042h13.93V3.532L12.357,0z M12.531,1.016l2.341,2.341h-2.341V1.016z
		 M2.554,17.447V0.595h9.382v3.357h3.357v13.494H2.554z"/>
	<rect x="4.365" y="8.522" style="fill:#FFFFFF;" width="9.116" height="0.595"/>
	<rect x="4.365" y="10.352" style="fill:#FFFFFF;" width="9.116" height="0.595"/>
	<rect x="4.365" y="12.181" style="fill:#FFFFFF;" width="9.116" height="0.595"/>
	<rect x="4.365" y="14.904" style="fill:#FFFFFF;" width="3.52" height="0.595"/>
	<path style="fill:#FFFFFF;" d="M8.62,2.464H4.365v4.255H8.62V2.464z M8.025,6.124H4.96V3.06h3.064V6.124z"/>
	<rect x="10.531" y="6.124" style="fill:#FFFFFF;" width="2.95" height="0.595"/>
</g>
</svg>
