<?xml version="1.0" encoding="iso-8859-1"?>
<!-- Generator: Adobe Illustrator 23.0.2, SVG Export Plug-In . SVG Version: 6.00 Build 0)  -->
<svg version="1.1" id="&#x5716;&#x5C64;_1" xmlns="http://www.w3.org/2000/svg" xmlns:xlink="http://www.w3.org/1999/xlink" x="0px"
	 y="0px" viewBox="0 0 41.308 41" style="enable-background:new 0 0 41.308 41;" xml:space="preserve">
<g>
	<g>
		<path style="fill:none;stroke:#000000;stroke-linecap:round;stroke-linejoin:round;stroke-miterlimit:10;" d="M13.448,17.512
			c0-0.373,0.547-6.237,0.547-6.237l3.951-2.584"/>
		<path style="fill:none;stroke:#000000;stroke-linecap:round;stroke-linejoin:round;stroke-miterlimit:10;" d="M17.945,8.69
			L17.945,8.69l0.066,2.922c0.019,0.84,0.401,1.63,1.046,2.168l1.596,1.329l1.596-1.329c0.646-0.537,1.027-1.328,1.046-2.168
			l0.067-2.922h0C21.752,9.877,19.556,9.877,17.945,8.69z"/>
		<path style="fill:none;stroke:#000000;stroke-linecap:round;stroke-linejoin:round;stroke-miterlimit:10;" d="M27.861,17.512
			c0-0.373-0.547-6.237-0.547-6.237L23.363,8.69"/>
		<path style="fill:none;stroke:#000000;stroke-linecap:round;stroke-linejoin:round;stroke-miterlimit:10;" d="M23.528,4.029
			c0-1.949-1.287-3.529-2.874-3.529c-1.587,0-2.874,1.58-2.874,3.529s1.287,3.529,2.874,3.529
			C22.242,7.557,23.528,5.978,23.528,4.029z"/>
	</g>
	<g>
		<path style="fill:none;stroke:#000000;stroke-linecap:round;stroke-linejoin:round;stroke-miterlimit:10;" d="M0.5,40.5
			c0-0.373,0.547-6.237,0.547-6.237l3.951-2.584"/>
		<path style="fill:none;stroke:#000000;stroke-linecap:round;stroke-linejoin:round;stroke-miterlimit:10;" d="M4.998,31.678
			L4.998,31.678L5.064,34.6c0.019,0.84,0.401,1.63,1.046,2.168l1.596,1.329l1.596-1.329c0.646-0.538,1.027-1.328,1.046-2.168
			l0.066-2.922l0,0C8.804,32.866,6.608,32.866,4.998,31.678z"/>
		<path style="fill:none;stroke:#000000;stroke-linecap:round;stroke-linejoin:round;stroke-miterlimit:10;" d="M14.913,40.5
			c0-0.373-0.547-6.237-0.547-6.237l-3.951-2.584"/>
		
			<ellipse style="fill:none;stroke:#000000;stroke-linecap:round;stroke-linejoin:round;stroke-miterlimit:10;" cx="7.706" cy="27.017" rx="2.874" ry="3.529"/>
		
			<line style="fill:none;stroke:#000000;stroke-linecap:round;stroke-linejoin:round;stroke-miterlimit:10;" x1="7.706" y1="38.097" x2="7.706" y2="40.5"/>
	</g>
	<g>
		<path style="fill:none;stroke:#000000;stroke-linecap:round;stroke-linejoin:round;stroke-miterlimit:10;" d="M26.395,39.968
			c0-0.373,0.547-6.237,0.547-6.237l3.951-2.584"/>
		<path style="fill:none;stroke:#000000;stroke-linecap:round;stroke-linejoin:round;stroke-miterlimit:10;" d="M30.893,31.147
			L30.893,31.147l0.066,2.922c0.019,0.84,0.401,1.63,1.046,2.168l1.596,1.329l1.596-1.329c0.646-0.538,1.027-1.328,1.046-2.168
			l0.066-2.922v0C34.7,32.334,32.504,32.334,30.893,31.147z"/>
		<path style="fill:none;stroke:#000000;stroke-linecap:round;stroke-linejoin:round;stroke-miterlimit:10;" d="M40.808,39.968
			c0-0.373-0.547-6.237-0.547-6.237l-3.951-2.584"/>
		
			<ellipse style="fill:none;stroke:#000000;stroke-linecap:round;stroke-linejoin:round;stroke-miterlimit:10;" cx="33.602" cy="26.486" rx="2.874" ry="3.529"/>
		
			<line style="fill:none;stroke:#000000;stroke-linecap:round;stroke-linejoin:round;stroke-miterlimit:10;" x1="33.602" y1="37.565" x2="33.602" y2="39.968"/>
	</g>
	<g>
		
			<line style="fill:none;stroke:#000000;stroke-linecap:round;stroke-linejoin:round;stroke-miterlimit:10;" x1="20.685" y1="25.22" x2="16.179" y2="29.726"/>
		<polyline style="fill:none;stroke:#000000;stroke-linecap:round;stroke-linejoin:round;stroke-miterlimit:10;" points="
			20.685,20.248 20.685,25.22 25.129,29.664 		"/>
	</g>
	
		<line style="fill:none;stroke:#000000;stroke-linecap:round;stroke-linejoin:round;stroke-miterlimit:10;" x1="20.654" y1="15.108" x2="20.654" y2="17.512"/>
</g>
</svg>
