<?xml version="1.0" encoding="iso-8859-1"?>
<!-- Generator: Adobe Illustrator 23.0.2, SVG Export Plug-In . SVG Version: 6.00 Build 0)  -->
<svg version="1.1" id="&#x5716;&#x5C64;_1" xmlns="http://www.w3.org/2000/svg" xmlns:xlink="http://www.w3.org/1999/xlink" x="0px"
	 y="0px" viewBox="0 0 44.803 40" style="enable-background:new 0 0 44.803 40;" xml:space="preserve">
<g>
	<path d="M41.351,0h-37.9C1.549,0,0,1.549,0,3.452v5.645v27.454C0,38.453,1.549,40,3.452,40h37.9c1.903,0,3.452-1.547,3.452-3.449
		V9.098V3.452C44.803,1.549,43.254,0,41.351,0z M1.001,3.452c0-1.352,1.099-2.451,2.451-2.451h37.9c1.351,0,2.451,1.099,2.451,2.451
		v5.145H1.001V3.452z M43.802,36.551c0,1.35-1.099,2.448-2.451,2.448h-37.9c-1.351,0-2.451-1.098-2.451-2.448V9.598h42.801V36.551z"
		/>
	<path d="M29.579,3.439c-0.751,0-1.36,0.609-1.36,1.36c0,0.751,0.609,1.36,1.36,1.36c0.751,0,1.36-0.609,1.36-1.36
		C30.939,4.048,30.33,3.439,29.579,3.439z"/>
	<path d="M34.642,3.439c-0.751,0-1.36,0.609-1.36,1.36c0,0.751,0.609,1.36,1.36,1.36c0.751,0,1.36-0.609,1.36-1.36
		C36.002,4.048,35.393,3.439,34.642,3.439z"/>
	<path d="M39.706,3.439c-0.751,0-1.36,0.609-1.36,1.36c0,0.751,0.609,1.36,1.36,1.36c0.751,0,1.36-0.609,1.36-1.36
		C41.065,4.048,40.457,3.439,39.706,3.439z"/>
	<path d="M9.981,26.795h3.027c0.166,0.884,0.451,1.728,0.849,2.517l-2.003,2.004c-0.195,0.195-0.195,0.513,0,0.708l2.823,2.823
		c0.195,0.195,0.512,0.195,0.708,0l1.817-1.817c0.836,0.544,1.743,0.949,2.703,1.208v2.482c0,0.277,0.224,0.5,0.5,0.5h3.992
		c0.277,0,0.5-0.224,0.5-0.5v-2.482c0.96-0.259,1.867-0.664,2.704-1.208l1.816,1.817c0.186,0.186,0.519,0.186,0.708,0l2.823-2.823
		c0.195-0.195,0.195-0.512,0-0.708l-2.004-2.004c0.398-0.789,0.683-1.633,0.849-2.517h3.027c0.277,0,0.5-0.224,0.5-0.5v-3.992
		c0-0.277-0.224-0.5-0.5-0.5h-3.395c-0.247-0.694-0.581-1.365-0.996-2.002l2.519-2.519c0.195-0.195,0.195-0.513,0-0.708
		l-2.823-2.823c-0.195-0.195-0.513-0.195-0.708,0l-2.705,2.706c-0.576-0.292-1.184-0.523-1.815-0.693v-3.885
		c0-0.277-0.224-0.5-0.5-0.5h-3.992c-0.277,0-0.5,0.224-0.5,0.5v3.885c-0.631,0.17-1.238,0.402-1.816,0.693l-2.705-2.705
		c-0.195-0.195-0.512-0.195-0.708,0l-2.823,2.823c-0.195,0.195-0.195,0.513,0,0.708l2.519,2.518
		c-0.414,0.636-0.748,1.306-0.996,2.002H9.981c-0.277,0-0.501,0.224-0.501,0.5v3.992C9.481,26.571,9.705,26.795,9.981,26.795z
		 M10.482,22.803h3.255c0.219,0,0.413-0.143,0.478-0.352c0.264-0.851,0.672-1.665,1.211-2.42c0.142-0.199,0.119-0.472-0.053-0.645
		l-2.459-2.458l2.115-2.115l2.613,2.614c0.159,0.159,0.403,0.193,0.597,0.083c0.707-0.394,1.472-0.685,2.275-0.866
		c0.228-0.051,0.391-0.254,0.391-0.488v-3.776h2.991v3.776c0,0.234,0.162,0.437,0.391,0.488c0.802,0.181,1.568,0.472,2.274,0.866
		c0.195,0.107,0.439,0.074,0.597-0.083l2.613-2.614l2.115,2.115l-2.458,2.458c-0.173,0.173-0.195,0.446-0.053,0.644
		c0.54,0.758,0.948,1.573,1.211,2.421c0.065,0.21,0.258,0.352,0.478,0.352h3.255v2.991h-2.95c-0.249,0-0.46,0.183-0.495,0.43
		c-0.15,1.048-0.48,2.036-0.982,2.937c-0.109,0.195-0.075,0.439,0.083,0.597l1.912,1.911l-2.115,2.115l-1.756-1.757
		c-0.174-0.173-0.446-0.195-0.645-0.053c-0.933,0.667-1.97,1.132-3.084,1.383c-0.228,0.051-0.391,0.254-0.391,0.488v2.373h-2.991
		v-2.373c0-0.234-0.162-0.437-0.391-0.488c-1.114-0.251-2.151-0.716-3.083-1.382c-0.197-0.144-0.471-0.12-0.645,0.053l-1.756,1.757
		l-2.115-2.115l1.912-1.911c0.158-0.159,0.192-0.402,0.083-0.597c-0.502-0.901-0.833-1.889-0.982-2.937
		c-0.035-0.246-0.246-0.43-0.495-0.43h-2.95V22.803z"/>
	<path d="M22.401,30.615c3.095,0,5.614-2.518,5.614-5.614c0-3.095-2.518-5.614-5.614-5.614c-3.095,0-5.614,2.518-5.614,5.614
		C16.788,28.096,19.306,30.615,22.401,30.615z M22.401,20.388c2.544,0,4.613,2.069,4.613,4.613c0,2.544-2.069,4.613-4.613,4.613
		c-2.544,0-4.613-2.069-4.613-4.613C17.789,22.457,19.858,20.388,22.401,20.388z"/>
</g>
</svg>
