<?xml version="1.0" encoding="iso-8859-1"?>
<!-- Generator: Adobe Illustrator 23.0.2, SVG Export Plug-In . SVG Version: 6.00 Build 0)  -->
<svg version="1.1" id="Design" xmlns="http://www.w3.org/2000/svg" xmlns:xlink="http://www.w3.org/1999/xlink" x="0px" y="0px"
	 viewBox="0 0 25 25" style="enable-background:new 0 0 25 25;" xml:space="preserve">
<g>
	<g>
		<path style="fill:#1DA1F2;" d="M12.5,25C5.607,25,0,19.393,0,12.5C0,5.607,5.607,0,12.5,0C19.393,0,25,5.607,25,12.5
			C25,19.393,19.393,25,12.5,25z"/>
	</g>
	<g>
		<g>
			<path style="fill:#FFFFFF;" d="M19.684,7.938c-0.463,0.209-0.972,0.337-1.472,0.42c0.237-0.04,0.587-0.469,0.726-0.643
				c0.213-0.265,0.39-0.567,0.49-0.892c0.013-0.025,0.022-0.057-0.003-0.077c-0.032-0.013-0.053-0.006-0.078,0.007
				C18.79,7.052,18.214,7.269,17.6,7.422c-0.051,0.013-0.089,0-0.121-0.032c-0.051-0.057-0.099-0.112-0.153-0.156
				c-0.258-0.219-0.535-0.392-0.847-0.519c-0.41-0.167-0.858-0.238-1.299-0.209c-0.429,0.028-0.851,0.149-1.232,0.348
				c-0.382,0.2-0.723,0.477-0.994,0.812c-0.281,0.346-0.488,0.755-0.594,1.189c-0.102,0.418-0.094,0.832-0.031,1.255
				c0.009,0.07,0.003,0.08-0.06,0.07C9.868,9.823,7.878,8.964,6.262,7.123c-0.07-0.08-0.108-0.08-0.166,0.006
				c-0.707,1.06-0.364,2.762,0.519,3.599c0.118,0.112,0.239,0.223,0.369,0.325c-0.048,0.01-0.635-0.054-1.159-0.325
				c-0.07-0.044-0.105-0.019-0.112,0.061c-0.007,0.114,0.003,0.22,0.019,0.344c0.136,1.074,0.88,2.068,1.899,2.456
				c0.121,0.051,0.255,0.096,0.385,0.118c-0.232,0.051-0.471,0.087-1.137,0.035c-0.083-0.016-0.115,0.025-0.083,0.105
				c0.5,1.363,1.58,1.769,2.389,2c0.108,0.019,0.217,0.019,0.325,0.044c-0.007,0.01-0.013,0.01-0.019,0.019
				c-0.268,0.409-1.198,0.713-1.631,0.865c-0.788,0.275-1.645,0.399-2.478,0.317c-0.133-0.02-0.161-0.018-0.197,0
				c-0.037,0.023-0.005,0.054,0.038,0.089c0.169,0.112,0.341,0.21,0.516,0.306c0.529,0.28,1.08,0.503,1.656,0.662
				c2.976,0.822,6.329,0.218,8.564-2.002c1.755-1.744,2.37-4.148,2.37-6.556c0-0.094,0.111-0.146,0.178-0.196
				c0.457-0.343,0.819-0.754,1.16-1.212c0.077-0.103,0.072-0.195,0.072-0.232c0-0.007,0-0.013,0-0.013
				C19.739,7.9,19.744,7.911,19.684,7.938z"/>
		</g>
		<g>
			<path style="fill-rule:evenodd;clip-rule:evenodd;fill:#FFFFFF;" d="M9.496,18.449C10.73,18.449,9.555,18.449,9.496,18.449
				C9.659,18.449,9.49,18.449,9.496,18.449z"/>
		</g>
		<g>
			<path style="fill-rule:evenodd;clip-rule:evenodd;fill:#FFFFFF;" d="M9.496,18.449C9.477,18.45,9.256,18.449,9.496,18.449
				C9.496,18.449,9.458,18.449,9.496,18.449z"/>
		</g>
		<g>
			<path style="fill-rule:evenodd;clip-rule:evenodd;fill:#FFFFFF;" d="M9.987,18.461C9.987,18.437,10.245,18.461,9.987,18.461
				C9.987,18.449,10.018,18.461,9.987,18.461z"/>
		</g>
		<g>
			<path style="fill-rule:evenodd;clip-rule:evenodd;fill:#FFFFFF;" d="M15.14,6.517c-0.016,0.013-0.038,0.013-0.06,0
				C15.102,6.517,15.124,6.517,15.14,6.517z"/>
		</g>
	</g>
</g>
</svg>
