<?xml version="1.0" encoding="iso-8859-1"?>
<!-- Generator: Adobe Illustrator 23.0.2, SVG Export Plug-In . SVG Version: 6.00 Build 0)  -->
<svg version="1.1" id="&#x5716;&#x5C64;_1" xmlns="http://www.w3.org/2000/svg" xmlns:xlink="http://www.w3.org/1999/xlink" x="0px"
	 y="0px" viewBox="0 0 25.005 25" style="enable-background:new 0 0 25.005 25;" xml:space="preserve">
<path style="fill:#231F20;" d="M12.088,24.99V25h0.833v-0.01c6.738-0.222,12.085-5.748,12.083-12.49
	c-0.009-6.737-5.35-12.258-12.083-12.49V0h-0.833v0.01C5.349,0.231,0,5.757,0,12.5C0,19.243,5.349,24.769,12.088,24.99z
	 M3.243,19.583h3.303c0.489,1.54,1.351,2.935,2.508,4.062C6.744,22.924,4.714,21.505,3.243,19.583z M24.16,12.083h-4.577
	c-0.022-1.973-0.307-3.935-0.847-5.833h3.613c1.115,1.747,1.741,3.762,1.812,5.833H24.16z M12.088,19.583v4.561
	c-2.115-0.212-3.671-2.032-4.643-4.561H12.088z M7.154,18.75c-0.573-1.892-0.873-3.856-0.894-5.833h5.828v5.833H7.154z
	 M12.922,24.146v-4.562h4.654c-0.138,0.361-0.284,0.712-0.445,1.042C16.385,22.144,15.062,23.937,12.922,24.146z M12.922,18.75
	v-5.833h5.824c-0.015,1.976-0.31,3.94-0.878,5.833H12.922z M19.584,12.917h4.578c-0.069,2.071-0.692,4.085-1.804,5.833h-3.621
	C19.277,16.852,19.562,14.89,19.584,12.917z M18.75,12.083h-5.829V6.25h4.934C18.428,8.142,18.729,10.106,18.75,12.083L18.75,12.083
	z M12.922,5.417V0.855c2.114,0.212,3.671,2.032,4.642,4.561H12.922z M12.088,0.855v4.561H7.446
	C8.417,2.887,9.974,1.067,12.088,0.855z M12.088,6.25v5.833H6.26c0.021-1.977,0.322-3.941,0.894-5.833H12.088z M5.432,12.083H0.848
	C0.92,10.012,1.546,7.997,2.661,6.25h3.615C5.733,8.147,5.449,10.11,5.432,12.083z M5.426,12.917
	c0.022,1.973,0.307,3.935,0.848,5.833H2.661c-1.115-1.747-1.741-3.762-1.813-5.833H5.426z M20.953,20.546
	c-1.373,1.45-3.097,2.521-5.005,3.108c1.163-1.128,2.028-2.526,2.517-4.07h3.308C21.517,19.919,21.243,20.24,20.953,20.546z
	 M21.766,5.417h-3.3c-0.489-1.54-1.35-2.935-2.508-4.061C18.268,2.077,20.297,3.495,21.766,5.417z M9.063,1.352
	C8.253,2.104,7.597,3.007,7.13,4.009C6.91,4.467,6.715,4.937,6.546,5.417H3.243C4.716,3.492,6.749,2.072,9.063,1.352z"/>
</svg>
